<svg width="318" height="159" viewBox="0 0 318 159" fill="none" xmlns="http://www.w3.org/2000/svg">
<path d="M314.423 -48.7353L228.447 -134.712C226.625 -136.532 223.673 -136.532 221.852 -134.712C220.031 -132.89 220.031 -129.938 221.852 -128.117L307.829 -42.1408C308.36 -41.6105 308.651 -40.9073 308.65 -40.1588C308.65 -39.414 308.359 -38.7145 307.829 -38.1848L297.08 -27.4355C295.988 -26.345 294.214 -26.345 293.124 -27.4355L186.396 -134.162C185.87 -134.688 185.579 -135.387 185.579 -136.132C185.579 -136.88 185.87 -137.584 186.4 -138.114L197.15 -148.864C198.239 -149.953 200.015 -149.953 201.105 -148.864L206.464 -143.504C208.286 -141.684 211.238 -141.684 213.059 -143.504C214.88 -145.326 214.88 -148.278 213.059 -150.099L207.696 -155.461C202.967 -160.181 195.277 -160.179 190.555 -155.458L179.806 -144.709C177.513 -142.416 176.251 -139.369 176.253 -136.127C176.255 -133.172 177.317 -130.386 179.24 -128.186L173.905 -122.852C171.699 -124.777 168.912 -125.837 165.956 -125.837C162.718 -125.837 159.674 -124.576 157.385 -122.287L146.635 -111.538C144.345 -109.248 143.084 -106.203 143.084 -102.965C143.084 -100.01 144.145 -97.2231 146.068 -95.0172L113.047 -61.9957C110.521 -59.4703 109.13 -56.1137 109.13 -52.5439C109.13 -48.9734 110.521 -45.6161 113.046 -43.0914L123.677 -32.4601C127.715 -28.4227 133.873 -27.3957 139 -29.9018L148.062 -34.3302C149.608 -35.0862 151.468 -34.7785 152.686 -33.5605L154.002 -32.245L94.4196 27.331C87.0809 34.6703 76.9757 38.3216 66.6901 37.3511C48.5181 35.6327 30.698 42.0488 17.805 54.9487C6.65647 66.1034 0.346108 80.9915 0.0352524 96.87C-0.276225 112.757 5.45532 127.875 16.173 139.44C27.5683 151.731 43.0502 158.674 59.7673 158.989C60.1652 158.997 60.5613 159.001 60.9585 159.001C77.233 159.001 92.4886 152.687 104.028 141.146C117.001 128.174 123.401 110.253 121.585 91.9765C120.701 83.1053 123.582 73.9649 129.488 66.8992C131.14 64.9234 130.877 61.9833 128.901 60.3314C126.925 58.6802 123.984 58.9425 122.333 60.9183C114.83 69.8952 111.175 81.5523 112.306 92.8997C113.844 108.382 108.424 123.563 97.4343 134.551C87.421 144.564 74.1133 149.947 59.9433 149.665C45.7838 149.398 32.6676 143.514 23.0124 133.1C4.40712 113.025 5.03007 80.9237 24.4007 61.5406C35.3211 50.6153 50.4131 45.1878 65.8129 46.6351C78.8706 47.8699 91.7027 43.235 101.013 33.9255L160.595 -25.6511L184.62 -1.62576L137.888 45.112C136.067 46.933 136.067 49.8854 137.889 51.7058C138.799 52.616 139.993 53.0711 141.186 53.0711C142.379 53.0711 143.573 52.616 144.483 51.7052L191.215 4.96811L192.525 6.27805C193.743 7.49597 194.052 9.358 193.293 10.9104L188.866 19.9638C186.36 25.0916 187.388 31.2497 191.424 35.2871L202.056 45.9183C204.662 48.5239 208.085 49.827 211.508 49.827C214.931 49.827 218.354 48.5239 220.96 45.9183L253.981 12.8974C256.187 14.8216 258.975 15.8822 261.93 15.8822C265.168 15.8822 268.213 14.6214 270.502 12.3316L281.252 1.58226C285.777 -2.9438 285.957 -10.1805 281.817 -14.9378L287.155 -20.2733C289.428 -18.2969 292.26 -17.2966 295.099 -17.2966C298.203 -17.2966 301.308 -18.4785 303.672 -20.841L314.417 -31.5866C316.709 -33.8733 317.972 -36.9159 317.974 -40.1538C317.977 -43.3954 316.716 -46.4424 314.423 -48.7353ZM180.528 -116.287L185.807 -121.563L280.532 -26.8367L275.255 -21.5621L180.528 -116.287ZM214.367 39.3238C212.791 40.8999 210.227 40.8992 208.651 39.3238L198.02 28.6932C196.799 27.4715 196.488 25.6095 197.246 24.0596L201.673 15.0069C204.181 9.87589 203.156 3.71846 199.121 -0.316437L159.282 -40.1556C155.246 -44.1912 149.089 -45.2164 143.965 -42.7072L134.906 -38.2806C133.356 -37.5227 131.493 -37.8336 130.273 -39.0552L119.641 -49.6865C118.877 -50.4506 118.457 -51.4652 118.457 -52.5445C118.457 -53.6225 118.878 -54.6378 119.642 -55.4019L152.634 -88.3942L247.359 6.33151L214.367 39.3238ZM274.658 -5.01283L263.909 5.73715C263.381 6.26561 262.679 6.55594 261.931 6.55594C261.183 6.55594 260.481 6.26498 259.953 5.73653L153.229 -100.988C152.701 -101.516 152.41 -102.218 152.41 -102.966C152.41 -103.714 152.701 -104.416 153.229 -104.944L163.979 -115.693C164.508 -116.222 165.209 -116.512 165.957 -116.512C166.704 -116.512 167.407 -116.221 167.935 -115.693L274.658 -8.96878C275.75 -7.8783 275.75 -6.10332 274.658 -5.01283Z" fill="#DD4D56"/>
<path d="M82.5732 76.3939C76.7912 70.6114 69.1038 67.427 60.9271 67.427C52.7503 67.427 45.0622 70.6114 39.2803 76.3933C27.3454 88.3289 27.3454 107.751 39.2803 119.686C45.0629 125.468 52.7503 128.652 60.9271 128.652C69.1038 128.652 76.7919 125.468 82.5732 119.686C94.5081 107.749 94.5081 88.3289 82.5732 76.3939ZM75.9787 113.091C71.9581 117.112 66.6132 119.326 60.9271 119.326C55.2409 119.326 49.8954 117.112 45.8748 113.091C41.8542 109.07 39.6403 103.726 39.6403 98.0394C39.6403 92.3532 41.8548 87.0084 45.8748 82.9878C49.8954 78.9666 55.2409 76.7527 60.9271 76.7527C66.6132 76.7527 71.9581 78.9672 75.9787 82.9878C79.9993 87.0084 82.2132 92.3532 82.2132 98.0394C82.2132 103.726 79.9993 109.07 75.9787 113.091Z" fill="#DD4D56"/>
</svg>
