<svg width="318" height="159" viewBox="0 0 318 159" fill="none" xmlns="http://www.w3.org/2000/svg">
<path d="M314.423 110.265L228.447 24.2884C226.625 22.468 223.673 22.468 221.852 24.2884C220.031 26.11 220.031 29.0619 221.852 30.8829L307.829 116.859C308.36 117.39 308.651 118.093 308.65 118.841C308.65 119.586 308.359 120.285 307.829 120.815L297.08 131.565C295.988 132.655 294.214 132.655 293.124 131.565L186.396 24.838C185.87 24.312 185.579 23.6126 185.579 22.8678C185.579 22.1199 185.87 21.4161 186.4 20.8858L197.15 10.1364C198.239 9.04717 200.015 9.04717 201.105 10.1364L206.464 15.4955C208.286 17.3159 211.238 17.3159 213.059 15.4955C214.88 13.6739 214.88 10.7221 213.059 8.90106L207.696 3.53881C202.967 -1.18122 195.277 -1.17935 190.555 3.54192L179.806 14.2913C177.513 16.5842 176.251 19.6312 176.253 22.8728C176.255 25.8278 177.317 28.6136 179.24 30.8145L173.905 36.1475C171.699 34.2233 168.912 33.1627 165.956 33.1627C162.718 33.1627 159.674 34.4235 157.385 36.7133L146.635 47.462C144.345 49.7524 143.084 52.7969 143.084 56.0348C143.084 58.9904 144.145 61.7769 146.068 63.9828L113.047 97.0043C110.521 99.5297 109.13 102.886 109.13 106.456C109.13 110.027 110.521 113.384 113.046 115.909L123.677 126.54C127.715 130.577 133.873 131.604 139 129.098L148.062 124.67C149.608 123.914 151.468 124.222 152.686 125.439L154.002 126.755L94.4196 186.331C87.0809 193.67 76.9757 197.322 66.6901 196.351C48.5181 194.633 30.698 201.049 17.805 213.949C6.65647 225.103 0.346108 239.992 0.0352524 255.87C-0.276225 271.757 5.45532 286.875 16.173 298.44C27.5683 310.731 43.0502 317.674 59.7673 317.989C60.1652 317.997 60.5613 318.001 60.9585 318.001C77.233 318.001 92.4886 311.687 104.028 300.146C117.001 287.174 123.401 269.253 121.585 250.977C120.701 242.105 123.582 232.965 129.488 225.899C131.14 223.923 130.877 220.983 128.901 219.331C126.925 217.68 123.984 217.943 122.333 219.918C114.83 228.895 111.175 240.552 112.306 251.9C113.844 267.382 108.424 282.563 97.4343 293.551C87.421 303.564 74.1133 308.947 59.9433 308.665C45.7838 308.398 32.6676 302.514 23.0124 292.1C4.40712 272.025 5.03007 239.924 24.4007 220.541C35.3211 209.615 50.4131 204.188 65.8129 205.635C78.8706 206.87 91.7027 202.235 101.013 192.926L160.595 133.349L184.62 157.374L137.888 204.112C136.067 205.933 136.067 208.885 137.889 210.706C138.799 211.616 139.993 212.071 141.186 212.071C142.379 212.071 143.573 211.616 144.483 210.705L191.215 163.968L192.525 165.278C193.743 166.496 194.052 168.358 193.293 169.91L188.866 178.964C186.36 184.092 187.388 190.25 191.424 194.287L202.056 204.918C204.662 207.524 208.085 208.827 211.508 208.827C214.931 208.827 218.354 207.524 220.96 204.918L253.981 171.897C256.187 173.822 258.975 174.882 261.93 174.882C265.168 174.882 268.213 173.621 270.502 171.332L281.252 160.582C285.777 156.056 285.957 148.82 281.817 144.062L287.155 138.727C289.428 140.703 292.26 141.703 295.099 141.703C298.203 141.703 301.308 140.522 303.672 138.159L314.417 127.413C316.709 125.127 317.972 122.084 317.974 118.846C317.977 115.605 316.716 112.558 314.423 110.265ZM180.528 42.7128L185.807 37.437L280.532 132.163L275.255 137.438L180.528 42.7128ZM214.367 198.324C212.791 199.9 210.227 199.899 208.651 198.324L198.02 187.693C196.799 186.472 196.488 184.61 197.246 183.06L201.673 174.007C204.181 168.876 203.156 162.718 199.121 158.684L159.282 118.844C155.246 114.809 149.089 113.784 143.965 116.293L134.906 120.719C133.356 121.477 131.493 121.166 130.273 119.945L119.641 109.314C118.877 108.549 118.457 107.535 118.457 106.456C118.457 105.377 118.878 104.362 119.642 103.598L152.634 70.6058L247.359 165.332L214.367 198.324ZM274.658 153.987L263.909 164.737C263.381 165.266 262.679 165.556 261.931 165.556C261.183 165.556 260.481 165.265 259.953 164.737L153.229 58.0125C152.701 57.484 152.41 56.7821 152.41 56.0342C152.41 55.2863 152.701 54.5844 153.229 54.0559L163.979 43.3065C164.508 42.7781 165.209 42.4877 165.957 42.4877C166.704 42.4877 167.407 42.7787 167.935 43.3071L274.658 150.031C275.75 151.122 275.75 152.897 274.658 153.987Z" fill="#DD4D56"/>
<path d="M216.312 148.445L169.521 101.655C167.7 99.8343 164.748 99.8343 162.927 101.655C161.106 103.476 161.106 106.428 162.927 108.249L209.717 155.04C210.628 155.95 211.822 156.405 213.015 156.405C214.208 156.405 215.402 155.95 216.312 155.04C218.132 153.219 218.132 150.267 216.312 148.445Z" fill="#DD4D56"/>
</svg>
